<svg width="558" height="617" viewBox="0 0 558 617" fill="none" xmlns="http://www.w3.org/2000/svg">
<path d="M359.116 45.4623C325.532 45.5846 292.302 52.3245 261.324 65.2966C230.346 78.2688 202.229 97.2189 178.579 121.064C154.929 144.909 136.211 173.181 123.494 204.264C110.776 235.347 104.31 268.631 104.463 302.215C104.617 335.799 111.387 369.023 124.388 399.989C137.389 430.954 156.366 459.054 180.233 482.681C204.099 506.309 232.389 525.001 263.484 537.69C294.579 550.378 327.869 556.814 361.453 556.629L361.033 480.24C337.486 480.37 314.146 475.858 292.344 466.962C270.543 458.066 250.709 444.96 233.975 428.394C217.242 411.829 203.937 392.127 194.822 370.417C185.707 348.706 180.96 325.412 180.852 301.866C180.744 278.32 185.278 254.983 194.195 233.19C203.111 211.397 216.235 191.575 232.816 174.857C249.398 158.139 269.111 144.853 290.83 135.758C312.549 126.663 335.848 121.937 359.394 121.851L359.116 45.4623Z" fill="url(#paint0_linear)"/>
<path d="M361 480.5L558 480V557L361.389 556.5L361 480.5Z" fill="#171717"/>
<path d="M105 300.5H181" stroke="white"/>
<defs>
<linearGradient id="paint0_linear" x1="289.5" y1="505.5" x2="135" y2="-232.5" gradientUnits="userSpaceOnUse">
<stop stop-color="#171717"/>
<stop offset="1" stop-color="#4F4F4F"/>
</linearGradient>
</defs>
</svg>
